<?xml version="1.0" encoding="UTF-8"?>
<svg width="700pt" height="700pt" version="1.1" viewBox="0 0 700 700" xmlns="http://www.w3.org/2000/svg" xmlns:xlink="http://www.w3.org/1999/xlink">
 <defs>
  <symbol id="s" overflow="visible">
   <path d="m18.766-1.125c-0.96875 0.5-1.9805 0.875-3.0312 1.125-1.043 0.25781-2.1367 0.39062-3.2812 0.39062-3.3984 0-6.0898-0.94531-8.0781-2.8438-1.9922-1.9062-2.9844-4.4844-2.9844-7.7344 0-3.2578 0.99219-5.8359 2.9844-7.7344 1.9883-1.9062 4.6797-2.8594 8.0781-2.8594 1.1445 0 2.2383 0.13281 3.2812 0.39062 1.0508 0.25 2.0625 0.625 3.0312 1.125v4.2188c-0.98047-0.65625-1.9453-1.1406-2.8906-1.4531-0.94922-0.3125-1.9492-0.46875-3-0.46875-1.875 0-3.3516 0.60547-4.4219 1.8125-1.0742 1.1992-1.6094 2.8555-1.6094 4.9688 0 2.1055 0.53516 3.7617 1.6094 4.9688 1.0703 1.1992 2.5469 1.7969 4.4219 1.7969 1.0508 0 2.0508-0.14844 3-0.45312 0.94531-0.3125 1.9102-0.80078 2.8906-1.4688z"/>
  </symbol>
  <symbol id="c" overflow="visible">
   <path d="m13.734-11.141c-0.4375-0.19531-0.87109-0.34375-1.2969-0.4375-0.41797-0.10156-0.83984-0.15625-1.2656-0.15625-1.2617 0-2.2305 0.40625-2.9062 1.2188-0.67969 0.80469-1.0156 1.9531-1.0156 3.4531v7.0625h-4.8906v-15.312h4.8906v2.5156c0.625-1 1.3438-1.7266 2.1562-2.1875 0.82031-0.46875 1.8008-0.70312 2.9375-0.70312 0.16406 0 0.34375 0.011719 0.53125 0.03125 0.19531 0.011719 0.47656 0.039062 0.84375 0.078125z"/>
  </symbol>
  <symbol id="b" overflow="visible">
   <path d="m17.641-7.7031v1.4062h-11.453c0.125 1.1484 0.53906 2.0078 1.25 2.5781 0.70703 0.57422 1.7031 0.85938 2.9844 0.85938 1.0312 0 2.082-0.14844 3.1562-0.45312 1.082-0.3125 2.1914-0.77344 3.3281-1.3906v3.7656c-1.1562 0.4375-2.3125 0.76562-3.4688 0.98438-1.1562 0.22656-2.3125 0.34375-3.4688 0.34375-2.7734 0-4.9297-0.70312-6.4688-2.1094-1.5312-1.4062-2.2969-3.3789-2.2969-5.9219 0-2.5 0.75391-4.4609 2.2656-5.8906 1.5078-1.4375 3.582-2.1562 6.2188-2.1562 2.4062 0 4.332 0.73047 5.7812 2.1875 1.4453 1.4492 2.1719 3.3828 2.1719 5.7969zm-5.0312-1.625c0-0.92578-0.27344-1.6719-0.8125-2.2344-0.54297-0.57031-1.25-0.85938-2.125-0.85938-0.94922 0-1.7188 0.26562-2.3125 0.79688s-0.96484 1.2969-1.1094 2.2969z"/>
  </symbol>
  <symbol id="g" overflow="visible">
   <path d="m9.2188-6.8906c-1.0234 0-1.793 0.17188-2.3125 0.51562-0.51172 0.34375-0.76562 0.85547-0.76562 1.5312 0 0.625 0.20703 1.1172 0.625 1.4688 0.41406 0.34375 0.98828 0.51562 1.7188 0.51562 0.92578 0 1.7031-0.32812 2.3281-0.98438 0.63281-0.66406 0.95312-1.4922 0.95312-2.4844v-0.5625zm7.4688-1.8438v8.7344h-4.9219v-2.2656c-0.65625 0.92969-1.3984 1.6055-2.2188 2.0312-0.82422 0.41406-1.8242 0.625-3 0.625-1.5859 0-2.8711-0.45703-3.8594-1.375-0.99219-0.92578-1.4844-2.1289-1.4844-3.6094 0-1.7891 0.61328-3.1016 1.8438-3.9375 1.2383-0.84375 3.1797-1.2656 5.8281-1.2656h2.8906v-0.39062c0-0.76953-0.30859-1.332-0.92188-1.6875-0.61719-0.36328-1.5703-0.54688-2.8594-0.54688-1.0547 0-2.0312 0.10547-2.9375 0.3125-0.89844 0.21094-1.7305 0.52344-2.5 0.9375v-3.7344c1.0391-0.25 2.0859-0.44141 3.1406-0.57812 1.0625-0.13281 2.125-0.20312 3.1875-0.20312 2.7578 0 4.75 0.54688 5.9688 1.6406 1.2266 1.0859 1.8438 2.8555 1.8438 5.3125z"/>
  </symbol>
  <symbol id="a" overflow="visible">
   <path d="m7.7031-19.656v4.3438h5.0469v3.5h-5.0469v6.5c0 0.71094 0.14062 1.1875 0.42188 1.4375s0.83594 0.375 1.6719 0.375h2.5156v3.5h-4.1875c-1.9375 0-3.3125-0.39844-4.125-1.2031-0.80469-0.8125-1.2031-2.1797-1.2031-4.1094v-6.5h-2.4219v-3.5h2.4219v-4.3438z"/>
  </symbol>
  <symbol id="f" overflow="visible">
   <path d="m12.766-13.078v-8.2031h4.9219v21.281h-4.9219v-2.2188c-0.66797 0.90625-1.4062 1.5703-2.2188 1.9844s-1.7578 0.625-2.8281 0.625c-1.8867 0-3.4336-0.75-4.6406-2.25-1.2109-1.5-1.8125-3.4258-1.8125-5.7812 0-2.3633 0.60156-4.2969 1.8125-5.7969 1.207-1.5 2.7539-2.25 4.6406-2.25 1.0625 0 2 0.21484 2.8125 0.64062 0.82031 0.42969 1.5664 1.0859 2.2344 1.9688zm-3.2188 9.9219c1.0391 0 1.8359-0.37891 2.3906-1.1406 0.55078-0.76953 0.82812-1.8828 0.82812-3.3438 0-1.457-0.27734-2.5664-0.82812-3.3281-0.55469-0.76953-1.3516-1.1562-2.3906-1.1562-1.043 0-1.8398 0.38672-2.3906 1.1562-0.55469 0.76172-0.82812 1.8711-0.82812 3.3281 0 1.4609 0.27344 2.5742 0.82812 3.3438 0.55078 0.76172 1.3477 1.1406 2.3906 1.1406z"/>
  </symbol>
  <symbol id="j" overflow="visible">
   <path d="m10.5-3.1562c1.0508 0 1.8516-0.37891 2.4062-1.1406 0.55078-0.76953 0.82812-1.8828 0.82812-3.3438 0-1.457-0.27734-2.5664-0.82812-3.3281-0.55469-0.76953-1.3555-1.1562-2.4062-1.1562-1.0547 0-1.8594 0.38672-2.4219 1.1562-0.55469 0.77344-0.82812 1.8828-0.82812 3.3281 0 1.4492 0.27344 2.5586 0.82812 3.3281 0.5625 0.77344 1.3672 1.1562 2.4219 1.1562zm-3.25-9.9219c0.67578-0.88281 1.4219-1.5391 2.2344-1.9688 0.82031-0.42578 1.7656-0.64062 2.8281-0.64062 1.8945 0 3.4453 0.75 4.6562 2.25 1.207 1.5 1.8125 3.4336 1.8125 5.7969 0 2.3555-0.60547 4.2812-1.8125 5.7812-1.2109 1.5-2.7617 2.25-4.6562 2.25-1.0625 0-2.0078-0.21094-2.8281-0.625-0.8125-0.42578-1.5586-1.0859-2.2344-1.9844v2.2188h-4.8906v-21.281h4.8906z"/>
  </symbol>
  <symbol id="i" overflow="visible">
   <path d="m0.34375-15.312h4.8906l4.125 10.391 3.5-10.391h4.8906l-6.4375 16.766c-0.64844 1.6953-1.4023 2.8828-2.2656 3.5625-0.86719 0.6875-2 1.0312-3.4062 1.0312h-2.8438v-3.2188h1.5312c0.83203 0 1.4375-0.13672 1.8125-0.40625 0.38281-0.26172 0.67969-0.73047 0.89062-1.4062l0.14062-0.42188z"/>
  </symbol>
  <symbol id="e" overflow="visible">
   <path d="m2.5781-20.406h8.7344c2.5938 0 4.582 0.57812 5.9688 1.7344 1.3945 1.1484 2.0938 2.7891 2.0938 4.9219 0 2.1367-0.69922 3.7812-2.0938 4.9375-1.3867 1.1562-3.375 1.7344-5.9688 1.7344h-3.4844v7.0781h-5.25zm5.25 3.8125v5.7031h2.9219c1.0195 0 1.8047-0.25 2.3594-0.75 0.5625-0.5 0.84375-1.2031 0.84375-2.1094 0-0.91406-0.28125-1.6172-0.84375-2.1094-0.55469-0.48828-1.3398-0.73438-2.3594-0.73438z"/>
  </symbol>
  <symbol id="h" overflow="visible">
   <path d="m17.75-9.3281v9.3281h-4.9219v-7.1094c0-1.3438-0.03125-2.2656-0.09375-2.7656s-0.16797-0.86719-0.3125-1.1094c-0.1875-0.3125-0.44922-0.55469-0.78125-0.73438-0.32422-0.17578-0.69531-0.26562-1.1094-0.26562-1.0234 0-1.8242 0.39844-2.4062 1.1875-0.58594 0.78125-0.875 1.8711-0.875 3.2656v7.5312h-4.8906v-21.281h4.8906v8.2031c0.73828-0.88281 1.5195-1.5391 2.3438-1.9688 0.83203-0.42578 1.75-0.64062 2.75-0.64062 1.7695 0 3.1133 0.54688 4.0312 1.6406 0.91406 1.0859 1.375 2.6562 1.375 4.7188z"/>
  </symbol>
  <symbol id="r" overflow="visible">
   <path d="m2.5781-20.406h5.25v16.422h9.25v3.9844h-14.5z"/>
  </symbol>
  <symbol id="d" overflow="visible">
   <path d="m9.6406-12.188c-1.0859 0-1.9141 0.39062-2.4844 1.1719-0.57422 0.78125-0.85938 1.9062-0.85938 3.375s0.28516 2.5938 0.85938 3.375c0.57031 0.77344 1.3984 1.1562 2.4844 1.1562 1.0625 0 1.875-0.38281 2.4375-1.1562 0.57031-0.78125 0.85938-1.9062 0.85938-3.375s-0.28906-2.5938-0.85938-3.375c-0.5625-0.78125-1.375-1.1719-2.4375-1.1719zm0-3.5c2.6328 0 4.6914 0.71484 6.1719 2.1406 1.4766 1.418 2.2188 3.3867 2.2188 5.9062 0 2.5117-0.74219 4.4805-2.2188 5.9062-1.4805 1.418-3.5391 2.125-6.1719 2.125-2.6484 0-4.7148-0.70703-6.2031-2.125-1.4922-1.4258-2.2344-3.3945-2.2344-5.9062 0-2.5195 0.74219-4.4883 2.2344-5.9062 1.4883-1.4258 3.5547-2.1406 6.2031-2.1406z"/>
  </symbol>
  <symbol id="q" overflow="visible">
   <path d="m12.422-21.281v3.2188h-2.7031c-0.6875 0-1.1719 0.125-1.4531 0.375-0.27344 0.25-0.40625 0.6875-0.40625 1.3125v1.0625h4.1875v3.5h-4.1875v11.812h-4.8906v-11.812h-2.4375v-3.5h2.4375v-1.0625c0-1.6641 0.46094-2.8984 1.3906-3.7031 0.92578-0.80078 2.3672-1.2031 4.3281-1.2031z"/>
  </symbol>
  <symbol id="p" overflow="visible">
   <path d="m16.547-12.766c0.61328-0.94531 1.3477-1.6719 2.2031-2.1719 0.85156-0.5 1.7891-0.75 2.8125-0.75 1.7578 0 3.0977 0.54688 4.0156 1.6406 0.92578 1.0859 1.3906 2.6562 1.3906 4.7188v9.3281h-4.9219v-7.9844-0.35938c0.007813-0.13281 0.015625-0.32031 0.015625-0.5625 0-1.082-0.16406-1.8633-0.48438-2.3438-0.3125-0.48828-0.82422-0.73438-1.5312-0.73438-0.92969 0-1.6484 0.38672-2.1562 1.1562-0.51172 0.76172-0.77344 1.8672-0.78125 3.3125v7.5156h-4.9219v-7.9844c0-1.6953-0.14844-2.7852-0.4375-3.2656-0.29297-0.48828-0.8125-0.73438-1.5625-0.73438-0.9375 0-1.6641 0.38672-2.1719 1.1562-0.51172 0.76172-0.76562 1.8594-0.76562 3.2969v7.5312h-4.9219v-15.312h4.9219v2.2344c0.60156-0.86328 1.2891-1.5156 2.0625-1.9531 0.78125-0.4375 1.6406-0.65625 2.5781-0.65625 1.0625 0 2 0.25781 2.8125 0.76562 0.8125 0.51172 1.4258 1.2305 1.8438 2.1562z"/>
  </symbol>
  <symbol id="o" overflow="visible">
   <path d="m2.5781-20.406h5.875l7.4219 14v-14h4.9844v20.406h-5.875l-7.4219-14v14h-4.9844z"/>
  </symbol>
  <symbol id="n" overflow="visible">
   <path d="m2.1875-5.9688v-9.3438h4.9219v1.5312c0 0.83594-0.007813 1.875-0.015625 3.125-0.011719 1.25-0.015625 2.0859-0.015625 2.5 0 1.2422 0.03125 2.1328 0.09375 2.6719 0.070313 0.54297 0.17969 0.93359 0.32812 1.1719 0.20703 0.32422 0.47266 0.57422 0.79688 0.75 0.32031 0.16797 0.69141 0.25 1.1094 0.25 1.0195 0 1.8203-0.39062 2.4062-1.1719 0.58203-0.78125 0.875-1.8672 0.875-3.2656v-7.5625h4.8906v15.312h-4.8906v-2.2188c-0.74219 0.89844-1.5234 1.5586-2.3438 1.9844-0.82422 0.41406-1.7344 0.625-2.7344 0.625-1.7617 0-3.1055-0.53906-4.0312-1.625-0.92969-1.082-1.3906-2.6602-1.3906-4.7344z"/>
  </symbol>
  <symbol id="m" overflow="visible">
   <path d="m17.75-9.3281v9.3281h-4.9219v-7.1406c0-1.3203-0.03125-2.2344-0.09375-2.7344s-0.16797-0.86719-0.3125-1.1094c-0.1875-0.3125-0.44922-0.55469-0.78125-0.73438-0.32422-0.17578-0.69531-0.26562-1.1094-0.26562-1.0234 0-1.8242 0.39844-2.4062 1.1875-0.58594 0.78125-0.875 1.8711-0.875 3.2656v7.5312h-4.8906v-15.312h4.8906v2.2344c0.73828-0.88281 1.5195-1.5391 2.3438-1.9688 0.83203-0.42578 1.75-0.64062 2.75-0.64062 1.7695 0 3.1133 0.54688 4.0312 1.6406 0.91406 1.0859 1.375 2.6562 1.375 4.7188z"/>
  </symbol>
  <symbol id="l" overflow="visible">
   <path d="m2.3594-15.312h4.8906v15.031c0 2.0508-0.49609 3.6172-1.4844 4.7031-0.98047 1.082-2.4062 1.625-4.2812 1.625h-2.4219v-3.2188h0.85938c0.92578 0 1.5625-0.21094 1.9062-0.625 0.35156-0.41797 0.53125-1.2461 0.53125-2.4844zm0-5.9688h4.8906v4h-4.8906z"/>
  </symbol>
  <symbol id="k" overflow="visible">
   <path d="m14.719-14.828v3.9844c-0.65625-0.45703-1.3242-0.79688-2-1.0156-0.66797-0.21875-1.3594-0.32812-2.0781-0.32812-1.3672 0-2.4336 0.40234-3.2031 1.2031-0.76172 0.79297-1.1406 1.9062-1.1406 3.3438 0 1.4297 0.37891 2.543 1.1406 3.3438 0.76953 0.79297 1.8359 1.1875 3.2031 1.1875 0.75781 0 1.4844-0.10938 2.1719-0.32812 0.6875-0.22656 1.3203-0.56641 1.9062-1.0156v4c-0.76172 0.28125-1.5391 0.48828-2.3281 0.625-0.78125 0.14453-1.5742 0.21875-2.375 0.21875-2.7617 0-4.9219-0.70703-6.4844-2.125-1.5547-1.4141-2.3281-3.3828-2.3281-5.9062 0-2.5312 0.77344-4.5039 2.3281-5.9219 1.5625-1.4141 3.7227-2.125 6.4844-2.125 0.80078 0 1.5938 0.074219 2.375 0.21875 0.78125 0.13672 1.5547 0.35156 2.3281 0.64062z"/>
  </symbol>
 </defs>
 <g>
  <path d="m271.59 360.47c0-1.4844-0.58984-2.9102-1.6406-3.9609-1.0469-1.0508-2.4727-1.6406-3.957-1.6406h-43.754c-5.6094-8.3906-12.281-16.023-19.848-22.703-1.0625-11.672-1.0938-23.41-0.10547-35.086 1.1172-17.094 0.92578-34.152-7.9844-43.145-1.168-1.1641-2.4805-2.1797-3.9062-3.0156v-32.129c0.003906-4.0078 1.5977-7.8516 4.4336-10.684 2.832-2.8359 6.6758-4.4297 10.684-4.4375h54.883c3.0938 0 5.6016-2.5078 5.6016-5.5977 0-3.0938-2.5078-5.6016-5.6016-5.6016h-54.883c-1.3633 0.03125-2.7188 0.16797-4.0586 0.41016 0.54688-2.7305 1.0703-5.957 1.5078-9.8125h-0.003906c1.5273-8.0977-1.2109-16.414-7.25-22.023-4.1055-3.6992-9.7461-5.1797-15.137-3.9727-7.207 1.8984-13.125 13.797-24.773 38.375-2.7734 5.8477-5.6445 11.91-8.5586 17.738-12.426 24.852-20.832 59.734-27.414 90.586-1.7266 8.0742-3.5273 14.91-5.1172 20.941-4.6445 17.594-7.707 29.215-1.6133 44.59 7.1055 17.934 6.3945 40.008 3.1445 67.637l-0.003907-0.003906c-0.35938 3.0703 1.8359 5.8516 4.9062 6.2148 0.21875 0.027344 0.44141 0.039062 0.66016 0.039062 2.8398-0.003906 5.2266-2.1289 5.5586-4.9492 3.4492-29.312 4.1133-52.957-3.8555-73.066-4.7344-11.953-2.3359-21.07 2.0273-37.613 1.625-6.1484 3.4609-13.121 5.2383-21.457 6.0664-28.398 14.551-64.055 26.484-87.914 2.9492-5.8984 5.8555-12.031 8.6641-17.953 6.0664-12.801 14.371-30.332 17.504-32.336v0.003906c1.8125-0.26172 3.6445 0.33594 4.957 1.6133 3.1055 3.2773 4.3945 7.8711 3.457 12.289-0.41406 5.9883-1.7109 11.883-3.8438 17.492-5.5742 4.9453-8.7734 12.039-8.7969 19.492v29.184c-0.91797-0.027343-1.793-0.12891-2.7617-0.078124-19.211 1.0703-19.266 22.812-19.316 40.281 0.10156 5.7305-0.10938 11.457-0.63281 17.164-1.1172 11.07-4.2031 21.855-9.1172 31.844-1.5234 2.6914-0.57422 6.1094 2.1172 7.6328 2.6914 1.5234 6.1094 0.57813 7.6328-2.1172 5.6875-11.273 9.2422-23.5 10.492-36.066 0.57422-6.125 0.80859-12.273 0.71094-18.426 0.054687-20.203 1.2812-28.715 8.7383-29.129 3.3516-0.58203 6.7852 0.42969 9.2852 2.7383 5.9062 5.9609 5.5469 22.562 4.7617 34.531v-0.003906c-1.3125 13.223-1.1328 26.555 0.53125 39.738 0.24609 1.2852 0.9375 2.4492 1.9492 3.2812 0.19531 0.16016 19.684 16.328 24.707 32.668 5.0469 19.965 2.5898 41.09-6.9062 59.363-1.4883 2.7109-0.49609 6.1133 2.2148 7.6016 2.7148 1.4883 6.1172 0.49609 7.6055-2.2148 3.1719-5.8516 5.6445-12.051 7.3711-18.477 8.3867-9.9531 14.168-21.836 16.828-34.582 6.4375-0.19531 12.633-2.4883 17.648-6.5234 3.6484-3.3008 6.0273-7.7773 6.7148-12.648 1.1523-1.0469 1.8125-2.5273 1.8203-4.082zm-30.902 12.047c-1.6172-0.15625-3.2266 0.38281-4.418 1.4844-1.1875 1.1094-1.832 2.6836-1.7695 4.3086 0.027344 4.2656-0.79688 8.4961-2.4219 12.438 0.003907-7.4414-1.0312-14.848-3.0781-22.004-0.27734-0.90234-0.69922-1.7773-1.0391-2.6719h29.723c-0.49609 1.0234-1.1797 1.9414-2.0195 2.7148-4.3945 2.9727-9.6992 4.2969-14.977 3.7305zm344.6-47.809c-1.5898-6.0312-3.3906-12.867-5.1172-20.941-6.5859-30.848-14.988-65.734-27.414-90.586-2.9141-5.8281-5.7852-11.891-8.5586-17.738-11.648-24.578-17.566-36.477-24.773-38.375l-0.003907 0.003907c-5.3906-1.207-11.031 0.27344-15.137 3.9727-6.0391 5.6094-8.7773 13.926-7.25 22.023 0.4375 3.8516 0.96094 7.082 1.5078 9.8125h-0.003906c-1.3398-0.24219-2.6953-0.37891-4.0586-0.41016h-54.883c-3.0938 0-5.6016 2.5078-5.6016 5.6016 0 3.0898 2.5078 5.5977 5.6016 5.5977h54.883c4.0078 0.007813 7.8516 1.6016 10.684 4.4375 2.8359 2.832 4.4297 6.6758 4.4336 10.684v32.129c-1.4258 0.83594-2.7383 1.8516-3.9062 3.0156-8.9102 8.9922-9.1016 26.047-7.9844 43.145 0.99219 11.676 0.95703 23.414-0.10547 35.082-7.5664 6.6836-14.238 14.316-19.848 22.707h-43.754c-1.4844 0-2.9102 0.58984-3.957 1.6406-1.0508 1.0508-1.6406 2.4766-1.6406 3.9609 0.007812 1.5547 0.66797 3.0352 1.8203 4.082 0.69141 4.8711 3.0664 9.3477 6.7148 12.648 5.0156 4.0391 11.211 6.3281 17.648 6.5273 2.6602 12.742 8.4414 24.625 16.828 34.578 1.7266 6.4258 4.2031 12.625 7.3711 18.477 1.4883 2.7109 4.8906 3.7031 7.6055 2.2148 2.7109-1.4844 3.7031-4.8906 2.2148-7.6016-9.4961-18.273-11.953-39.398-6.9062-59.363 5.0273-16.336 24.512-32.508 24.707-32.668 1.0117-0.83203 1.7031-1.9961 1.9492-3.2812 1.6641-13.184 1.8438-26.516 0.53125-39.738-0.78125-11.969-1.1445-28.57 4.7617-34.531v0.003906c2.5-2.3125 5.9336-3.3242 9.2852-2.7383 7.4609 0.41406 8.6836 8.9297 8.7383 29.129-0.097656 6.1523 0.13672 12.305 0.71094 18.426 1.25 12.566 4.8047 24.793 10.492 36.066 1.5312 2.6836 4.9414 3.6172 7.625 2.0938 2.6875-1.5234 3.6328-4.9297 2.1172-7.6211-4.9336-9.9727-8.0234-20.758-9.1094-31.832-0.52344-5.707-0.73438-11.434-0.63672-17.164-0.050781-17.469-0.10547-39.215-19.316-40.281-0.96875-0.054688-1.8438 0.046874-2.7617 0.078124l0.003906-29.184c-0.023437-7.4492-3.2188-14.539-8.793-19.488-2.1445-5.6094-3.4414-11.504-3.8477-17.496-0.9375-4.418 0.35156-9.0117 3.457-12.289 1.2188-1.1641 2.8438-1.8008 4.5273-1.7773 3.5586 2.168 11.867 19.703 17.934 32.5 2.8047 5.9219 5.7148 12.055 8.6641 17.953 11.934 23.863 20.422 59.516 26.484 87.914 1.7773 8.3359 3.6133 15.309 5.2383 21.457 4.3633 16.543 6.7656 25.656 2.0273 37.613-7.9688 20.109-7.3047 43.754-3.8555 73.066v-0.003906c0.33203 2.8203 2.7188 4.9453 5.5586 4.9492 0.21875 0 0.44141-0.011718 0.66016-0.039062 3.0703-0.36328 5.2656-3.1445 4.9062-6.2148-3.25-27.629-3.9609-49.703 3.1445-67.637 6.0938-15.375 3.0312-26.996-1.6133-44.59zm-121.57 49.289v0.003906c-1.1914-1.1055-2.8008-1.6445-4.418-1.4844-5.2656 0.57031-10.562-0.74609-14.949-3.7109-0.84766-0.77344-1.543-1.7031-2.0469-2.7344h29.723c-0.33984 0.89453-0.76172 1.7695-1.0391 2.6719-2.0234 7.082-3.0547 14.414-3.0664 21.781-1.6016-3.8711-2.4297-8.0234-2.4336-12.215 0.0625-1.625-0.58203-3.1992-1.7695-4.3086zm-191.45-248.8c1.5469-2.6797 4.9727-3.5977 7.6484-2.0508l22.973 13.266h0.003907c2.6758 1.5469 3.5938 4.9688 2.0469 7.6484-1.5469 2.6758-4.9688 3.5977-7.6484 2.0508l-22.973-13.266c-1.2891-0.74219-2.2266-1.9648-2.6094-3.3984-0.38672-1.4336-0.18359-2.9648 0.55859-4.25zm-49.898-28.809c0.74219-1.2891 1.9648-2.2266 3.4023-2.6133 1.4336-0.38281 2.9648-0.17969 4.25 0.5625l9.6953 5.6016c1.2852 0.74219 2.2266 1.9648 2.6094 3.3984 0.38672 1.4375 0.18359 2.9648-0.55859 4.25-0.74219 1.2891-1.9648 2.2266-3.4023 2.6094-1.4336 0.38281-2.9609 0.18359-4.25-0.5625l-9.6953-5.6016v0.003906c-1.2852-0.74219-2.2266-1.9648-2.6094-3.4023-0.38672-1.4336-0.18359-2.9609 0.55859-4.2461zm172.68 47.672c-0.74219-1.2852-0.94141-2.8164-0.55859-4.25 0.38281-1.4336 1.3242-2.6562 2.6094-3.3984l22.973-13.266h0.003906c2.6758-1.543 6.1016-0.625 7.6484 2.0508 1.543 2.6797 0.62891 6.1016-2.0508 7.6484l-22.973 13.266c-2.6797 1.5469-6.1055 0.62891-7.6523-2.0508zm63.172-36.473c-0.74609-1.2852-0.94531-2.8164-0.5625-4.25 0.38672-1.4375 1.3242-2.6602 2.6133-3.4023l9.7031-5.6016-0.003906 0.003906c2.6797-1.5469 6.1016-0.62891 7.6484 2.0508s0.62891 6.1016-2.0469 7.6484l-9.7031 5.6016c-2.6797 1.543-6.1016 0.625-7.6484-2.0508zm-95.723 283.09-1.2969-0.75 86.797-50.113c1.7344-1 2.8008-2.8477 2.8008-4.8477v-109.93c0-2-1.0664-3.8477-2.8008-4.8477l-86.797-50.113 1.2969-0.75c2.6797-1.5469 3.5938-4.9727 2.0508-7.6484-1.5469-2.6797-4.9688-3.5977-7.6484-2.0547l-6.9023 3.9844-6.9023-3.9844c-2.6797-1.543-6.1016-0.625-7.6484 2.0547-1.543 2.6758-0.62891 6.1016 2.0508 7.6484l1.2969 0.75-86.797 50.113c-1.7344 1-2.8008 2.8477-2.8008 4.8477v109.93c0 2 1.0664 3.8477 2.8008 4.8477l86.797 50.113-1.2969 0.75c-2.6797 1.5469-3.5938 4.9727-2.0508 7.6484 1.5469 2.6797 4.9688 3.5977 7.6484 2.0547l6.9023-3.9844 6.9023 3.9844c2.6797 1.543 6.1016 0.625 7.6484-2.0547 1.543-2.6758 0.62891-6.1016-2.0508-7.6484zm-12.5-214.14 84 48.496-84 48.496-84-48.496zm5.6016 203.69v-96.992l84-48.496v96.996zm-95.203-145.49 84 48.496v96.996l-84-48.5zm167.33 200.06c-1.5469 2.6797-4.9727 3.5977-7.6484 2.0508l-22.973-13.266h-0.003907c-2.6758-1.5469-3.5938-4.9688-2.0469-7.6484 1.5469-2.6758 4.9688-3.5977 7.6484-2.0508l22.973 13.266c1.2891 0.74219 2.2266 1.9648 2.6094 3.3984 0.38672 1.4336 0.18359 2.9648-0.55859 4.25zm49.898 28.809c-1.0039 1.7344-2.8555 2.8047-4.8555 2.8008-0.98438 0-1.9492-0.25781-2.7969-0.75l-9.6953-5.6016c-1.2852-0.74219-2.2266-1.9648-2.6094-3.3984-0.38672-1.4375-0.18359-2.9648 0.55859-4.25 0.74219-1.2891 1.9648-2.2266 3.4023-2.6094 1.4336-0.38281 2.9609-0.18359 4.25 0.5625l9.6953 5.6016v-0.003906c1.2852 0.74219 2.2266 1.9648 2.6094 3.4023 0.38672 1.4336 0.18359 2.9609-0.55859 4.2461zm-172.68-47.672c0.74219 1.2852 0.94141 2.8164 0.55859 4.25-0.38281 1.4336-1.3242 2.6562-2.6094 3.3984l-22.973 13.266h-0.003906c-1.2852 0.74219-2.8164 0.94531-4.25 0.5625-1.4336-0.38672-2.6602-1.3242-3.4023-2.6133-0.74219-1.2852-0.94531-2.8164-0.55859-4.25 0.38672-1.4336 1.3242-2.6562 2.6133-3.3984l22.973-13.266c1.2852-0.74219 2.8164-0.94531 4.25-0.55859 1.4375 0.38281 2.6602 1.3203 3.4023 2.6094zm-63.176 36.473c0.74219 1.2852 0.94531 2.8164 0.55859 4.25-0.38281 1.4336-1.3242 2.6562-2.6094 3.3984l-9.6953 5.6016c-0.84766 0.49219-1.8125 0.75-2.7969 0.75-2.5352 0.003906-4.7539-1.6992-5.4141-4.1445-0.65625-2.4492 0.41406-5.0352 2.6094-6.3047l9.6953-5.6016v0.003906c1.2852-0.74609 2.8164-0.94922 4.2539-0.56641 1.4336 0.38672 2.6562 1.3242 3.3984 2.6133z"/>
  <use x="70" y="644" xlink:href="#s"/>
  <use x="90.550781" y="644" xlink:href="#c"/>
  <use x="104.359375" y="644" xlink:href="#b"/>
  <use x="123.347656" y="644" xlink:href="#g"/>
  <use x="142.242188" y="644" xlink:href="#a"/>
  <use x="155.628906" y="644" xlink:href="#b"/>
  <use x="174.617188" y="644" xlink:href="#f"/>
  <use x="204.410156" y="644" xlink:href="#j"/>
  <use x="224.453125" y="644" xlink:href="#i"/>
  <use x="252.453125" y="644" xlink:href="#e"/>
  <use x="272.972656" y="644" xlink:href="#g"/>
  <use x="291.867188" y="644" xlink:href="#a"/>
  <use x="305.25" y="644" xlink:href="#h"/>
  <use x="334.933594" y="644" xlink:href="#r"/>
  <use x="352.773438" y="644" xlink:href="#d"/>
  <use x="372.011719" y="644" xlink:href="#c"/>
  <use x="385.820312" y="644" xlink:href="#f"/>
  <use x="70" y="672" xlink:href="#q"/>
  <use x="82.183594" y="672" xlink:href="#c"/>
  <use x="95.992188" y="672" xlink:href="#d"/>
  <use x="115.226562" y="672" xlink:href="#p"/>
  <use x="154.152344" y="672" xlink:href="#a"/>
  <use x="167.535156" y="672" xlink:href="#h"/>
  <use x="187.46875" y="672" xlink:href="#b"/>
  <use x="216.207031" y="672" xlink:href="#o"/>
  <use x="239.640625" y="672" xlink:href="#d"/>
  <use x="258.878906" y="672" xlink:href="#n"/>
  <use x="278.8125" y="672" xlink:href="#m"/>
  <use x="308.492188" y="672" xlink:href="#e"/>
  <use x="329.015625" y="672" xlink:href="#c"/>
  <use x="342.820312" y="672" xlink:href="#d"/>
  <use x="362.058594" y="672" xlink:href="#l"/>
  <use x="371.65625" y="672" xlink:href="#b"/>
  <use x="390.648438" y="672" xlink:href="#k"/>
  <use x="407.242188" y="672" xlink:href="#a"/>
 </g>
</svg>
